# xmcd
#
# Track frame offsets:
#	150
#	18379
#	34892
#	43624
#	62192
#	80086
#	97374
#	117667
#	134428
# Disc length: 2012 seconds
# Revision: 1
# Processed by: cddbd v1.5.1PL2 Copyright (c) Steve Scherf et al.
#
# Submitted via: libkcddb 0.10
#
DISCID=8607da09
DTITLE=david japon - ne te cache pas
DYEAR=1900
DGENRE=
TTITLE0=ne te cache pas 
TTITLE1=
TTITLE2=
TTITLE3=
TTITLE4=
TTITLE5=
TTITLE6=
TTITLE7=
TTITLE8=
EXTD=
EXTT0=jtu fait 
EXTT1=
EXTT2=
EXTT3=
EXTT4=
EXTT5=
EXTT6=
EXTT7=
EXTT8=
PLAYORDER=
